<svg width="256" height="256" viewBox="0 0 256 256" fill="none" xmlns="http://www.w3.org/2000/svg">
<path opacity="0.2" d="M192 95.3136V223.999C192 228.242 190.314 232.312 187.314 235.313C184.313 238.314 180.243 239.999 176 239.999H80C75.7566 239.999 71.6869 238.314 68.6863 235.313C65.6857 232.312 64 228.242 64 223.999V95.3136C64 91.0704 65.6857 87.0008 68.6863 84C71.6869 80.9992 75.7566 79.3137 80 79.3137H176C180.243 79.3137 184.313 80.9992 187.314 84C190.314 87.0008 192 91.0704 192 95.3136Z" fill="currentColor"/>
<path d="M88 8C88 5.87827 88.8432 3.84344 90.3432 2.34314C91.8432 0.842856 93.8784 0 96 0H160C162.122 0 164.157 0.842856 165.657 2.34314C167.157 3.84344 168 5.87827 168 8C168 10.1218 167.157 12.1566 165.657 13.6569C164.157 15.1571 162.122 16 160 16H96C93.8784 16 91.8432 15.1571 90.3432 13.6569C88.8432 12.1566 88 10.1218 88 8Z" fill="currentColor"/>
<path fill-rule="evenodd" clip-rule="evenodd" d="M200 224V56C200 49.6348 197.471 43.5303 192.97 39.0294C188.47 34.5286 182.365 32 176 32H80C73.6348 32 67.5303 34.5286 63.0294 39.0294C58.5286 43.5303 56 49.6348 56 56V224C56 230.365 58.5286 236.47 63.0294 240.97C67.5303 245.471 73.6348 248 80 248H176C182.365 248 188.47 245.471 192.97 240.97C197.471 236.47 200 230.365 200 224ZM184 96C184 93.8784 183.157 91.8432 181.657 90.3432C180.157 88.8432 178.122 88 176 88H80C77.8782 88 75.8434 88.8432 74.3431 90.3432C72.8429 91.8432 72 93.8784 72 96V224C72 226.122 72.8429 228.157 74.3431 229.657C75.8434 231.157 77.8782 232 80 232H176C178.122 232 180.157 231.157 181.657 229.657C183.157 228.157 184 226.122 184 224V96ZM80 72C77.2485 72 74.5456 72.4725 72 73.3726V56C72 53.8782 72.8429 51.8434 74.3431 50.3431C75.8434 48.8429 77.8782 48 80 48H176C178.122 48 180.157 48.8429 181.657 50.3431C183.157 51.8434 184 53.8782 184 56V73.3726C181.454 72.4725 178.751 72 176 72H80Z" fill="currentColor"/>
</svg>
