<svg width="256" height="256" viewBox="0 0 256 256" fill="none" xmlns="http://www.w3.org/2000/svg">
<path opacity="0.2" d="M192 136V224C192 228.243 190.314 232.313 187.314 235.314C184.313 238.314 180.243 240 176 240H80C75.7566 240 71.6869 238.314 68.6863 235.314C65.6857 232.313 64 228.243 64 224V136C64 131.757 65.6857 127.687 68.6863 124.686C71.6869 121.686 75.7566 120 80 120H176C180.243 120 184.313 121.686 187.314 124.686C190.314 127.687 192 131.757 192 136Z" fill="currentColor"/>
<path d="M88 8C88 5.87827 88.8432 3.84344 90.3432 2.34314C91.8432 0.842856 93.8784 0 96 0H160C162.122 0 164.157 0.842856 165.657 2.34314C167.157 3.84344 168 5.87827 168 8C168 10.1218 167.157 12.1566 165.657 13.6569C164.157 15.1571 162.122 16 160 16H96C93.8784 16 91.8432 15.1571 90.3432 13.6569C88.8432 12.1566 88 10.1218 88 8Z" fill="currentColor"/>
<path fill-rule="evenodd" clip-rule="evenodd" d="M200 224V56C200 49.6348 197.471 43.5303 192.97 39.0294C188.47 34.5286 182.365 32 176 32H80C73.6348 32 67.5303 34.5286 63.0294 39.0294C58.5286 43.5303 56 49.6348 56 56V224C56 230.365 58.5286 236.47 63.0294 240.97C67.5303 245.471 73.6348 248 80 248H176C182.365 248 188.47 245.471 192.97 240.97C197.471 236.47 200 230.365 200 224ZM72 113.373C74.5456 112.473 77.2485 112 80 112H176C178.751 112 181.454 112.473 184 113.373V56C184 53.8782 183.157 51.8434 181.657 50.3431C180.157 48.8429 178.122 48 176 48H80C77.8782 48 75.8434 48.8429 74.3431 50.3431C72.8429 51.8434 72 53.8782 72 56V113.373ZM181.657 130.343C183.157 131.843 184 133.878 184 136V224C184 226.122 183.157 228.157 181.657 229.657C180.157 231.157 178.122 232 176 232H80C77.8782 232 75.8434 231.157 74.3431 229.657C72.8429 228.157 72 226.122 72 224V136C72 133.878 72.8429 131.843 74.3431 130.343C75.8434 128.843 77.8782 128 80 128H176C178.122 128 180.157 128.843 181.657 130.343Z" fill="currentColor"/>
</svg>
