<svg width="256" height="256" viewBox="0 0 256 256" fill="none" xmlns="http://www.w3.org/2000/svg">
<path d="M88 8C88 5.87827 88.8432 3.84344 90.3432 2.34314C91.8432 0.842856 93.8784 0 96 0H160C162.122 0 164.157 0.842856 165.657 2.34314C167.157 3.84344 168 5.87827 168 8C168 10.1218 167.157 12.1566 165.657 13.6569C164.157 15.1571 162.122 16 160 16H96C93.8784 16 91.8432 15.1571 90.3432 13.6569C88.8432 12.1566 88 10.1218 88 8ZM200 56V224C200 230.365 197.471 236.47 192.97 240.97C188.47 245.471 182.365 248 176 248H80C73.6348 248 67.5303 245.471 63.0294 240.97C58.5286 236.47 56 230.365 56 224V56C56 49.6348 58.5286 43.5303 63.0294 39.0294C67.5303 34.5286 73.6348 32 80 32H176C182.365 32 188.47 34.5286 192.97 39.0294C197.471 43.5303 200 49.6348 200 56ZM184 56C184 53.8782 183.157 51.8434 181.657 50.3431C180.157 48.8429 178.122 48 176 48H80C77.8782 48 75.8434 48.8429 74.3431 50.3431C72.8429 51.8434 72 53.8782 72 56V224C72 226.122 72.8429 228.157 74.3431 229.657C75.8434 231.157 77.8782 232 80 232H176C178.122 232 180.157 231.157 181.657 229.657C183.157 228.157 184 226.122 184 224V56Z" fill="currentColor"/>
<path d="M88 140C88 137.878 88.8432 135.843 90.3432 134.343C91.8432 132.843 93.8784 132 96 132H160C162.122 132 164.157 132.843 165.657 134.343C167.157 135.843 168 137.878 168 140C168 142.122 167.157 144.157 165.657 145.657C164.157 147.157 162.122 148 160 148H96C93.8784 148 91.8432 147.157 90.3432 145.657C88.8432 144.157 88 142.122 88 140Z" fill="currentColor"/>
</svg>
