<svg width="256" height="256" viewBox="0 0 256 256" fill="none" xmlns="http://www.w3.org/2000/svg">
<path opacity="0.2" d="M192 176L192.005 223.999C192.005 228.242 190.319 232.312 187.319 235.313C184.318 238.314 180.249 239.999 176.005 239.999H80.0048C75.7617 239.999 71.692 238.314 68.6914 235.313C65.6909 232.312 64.0051 228.242 64.0051 223.999L64 176C64 171.757 65.6857 167.687 68.6863 164.686C71.6869 161.686 75.7566 160 80 160H176C180.243 160 184.313 161.686 187.314 164.686C190.314 167.687 192 171.757 192 176Z" fill="currentColor"/>
<path d="M88.0056 8C88.0056 5.87827 88.848 3.84344 90.3488 2.34314C91.8488 0.842856 93.8832 0 96.0056 0H160.006C162.127 0 164.162 0.842856 165.662 2.34314C167.162 3.84344 168.006 5.87827 168.006 8C168.006 10.1218 167.162 12.1566 165.662 13.6569C164.162 15.1571 162.127 16 160.006 16H96.0056C93.8832 16 91.8488 15.1571 90.3488 13.6569C88.848 12.1566 88.0056 10.1218 88.0056 8Z" fill="currentColor"/>
<path fill-rule="evenodd" clip-rule="evenodd" d="M200.006 224L200 56C200 49.6348 197.471 43.5303 192.97 39.0294C188.47 34.5286 182.365 32 176 32H80C73.6348 32 67.5303 34.5286 63.0294 39.0294C58.5286 43.5303 56 49.6348 56 56L56.0053 224C56.0053 230.365 58.5338 236.47 63.0347 240.97C67.5356 245.471 73.6401 248 80.0056 248H176.006C182.37 248 188.475 245.471 192.976 240.97C197.477 236.47 200.006 230.365 200.006 224ZM184 176C184 173.878 183.157 171.843 181.657 170.343C180.157 168.843 178.122 168 176 168H80C77.8782 168 75.8434 168.843 74.3431 170.343C72.8429 171.843 72 173.878 72 176L72.0053 224C72.0053 226.122 72.8481 228.157 74.3484 229.657C75.8487 231.157 77.8835 232 80.0056 232H176.006C178.127 232 180.162 231.157 181.662 229.657C183.162 228.157 184.006 226.122 184.006 224L184 176ZM80 152C77.2495 152 74.5478 152.472 72.003 153.371L72 56C72 53.8782 72.8429 51.8434 74.3431 50.3431C75.8434 48.8429 77.8782 48 80 48H176C178.122 48 180.157 48.8429 181.657 50.3431C183.157 51.8434 184 53.8782 184 56L184.003 153.374C181.457 152.473 178.753 152 176 152H80Z" fill="currentColor"/>
</svg>
