<svg width="256" height="256" viewBox="0 0 256 256" fill="none" xmlns="http://www.w3.org/2000/svg">
<path d="M40 128C40 186.29 74.67 208.25 76.15 209.16C77.9667 210.257 79.2734 212.03 79.7826 214.09C80.2917 216.15 79.9617 218.328 78.865 220.145C77.7683 221.962 75.9949 223.268 73.9348 223.778C71.8747 224.287 69.6967 223.957 67.88 222.86C66.09 221.78 24 195.75 24 128C24 60.25 66.09 34.22 67.88 33.14C69.6949 32.0897 71.8496 31.794 73.8803 32.3164C75.9111 32.8389 77.6555 34.1377 78.7382 35.9335C79.8209 37.7292 80.1552 39.8782 79.6693 41.918C79.1834 43.9578 77.916 45.7253 76.14 46.84C74.54 47.83 40 69.82 40 128ZM188.12 33.14C186.303 32.0434 184.125 31.7133 182.065 32.2225C180.005 32.7316 178.232 34.0383 177.135 35.855C176.038 37.6718 175.708 39.8497 176.217 41.9098C176.727 43.9699 178.033 45.7434 179.85 46.84C181.33 47.75 216 69.71 216 128C216 186.29 181.33 208.25 179.88 209.14C178.061 210.233 176.75 212.003 176.236 214.063C175.722 216.122 176.047 218.301 177.14 220.12C178.233 221.939 180.003 223.25 182.063 223.764C184.122 224.278 186.301 223.953 188.12 222.86C189.91 221.78 232 195.75 232 128C232 60.25 189.91 34.22 188.12 33.14Z" fill="currentColor"/>
</svg>
