<svg width="256" height="256" viewBox="0 0 256 256" fill="none" xmlns="http://www.w3.org/2000/svg">
<path opacity="0.2" d="M224 80.3719V176.029C223.997 177.461 223.61 178.866 222.877 180.098C222.146 181.33 221.096 182.343 219.84 183.029L131.84 231.218C130.663 231.863 129.342 232.2 128 232.2C126.658 232.2 125.337 231.863 124.16 231.218L36.16 183.029C34.9035 182.343 33.8546 181.33 33.1227 180.098C32.391 178.866 32.0032 177.461 32 176.029V80.3719C32.0032 78.9392 32.391 77.5338 33.1227 76.3023C33.8546 75.0708 34.9035 74.0583 36.16 73.3706L124.16 25.1823C125.337 24.538 126.658 24.2002 128 24.2002C129.342 24.2002 130.663 24.538 131.84 25.1823L219.84 73.3706C221.096 74.0583 222.146 75.0708 222.877 76.3023C223.61 77.5338 223.997 78.9392 224 80.3719Z" fill="currentColor"/>
<path d="M128 50.4002L200 89.2005L128 128.001L56 89.2005L128 50.4002Z" fill="currentColor"/>
<path d="M223.68 66.1441L135.68 17.9812C133.329 16.6817 130.686 16 128 16C125.314 16 122.671 16.6817 120.32 17.9812L32.32 66.1641C29.8069 67.5395 27.709 69.5646 26.2455 72.0279C24.782 74.4912 24.0065 77.3024 24 80.1679V175.834C24.0065 178.699 24.782 181.51 26.2455 183.973C27.709 186.437 29.8069 188.462 32.32 189.837L120.32 238.02C122.671 239.32 125.314 240.001 128 240.001C130.686 240.001 133.329 239.32 135.68 238.02L227.702 187.421L228 187.257C231.826 185.048 233.137 180.156 230.928 176.329C228.719 172.503 223.826 171.192 220 173.401L128 224.036L40 175.844V80.1779L128 31.9849L216 80.1679V89.2005C216 93.6188 219.582 97.2005 224 97.2005C228.418 97.2005 232 93.6188 232 89.2005V80.1779C231.999 77.3073 231.226 74.4899 229.762 72.0208C228.298 69.5518 226.198 67.522 223.68 66.1441Z" fill="currentColor"/>
</svg>
