<svg width="256" height="256" viewBox="0 0 256 256" fill="none" xmlns="http://www.w3.org/2000/svg">
<path opacity="0.2" d="M208 88.0078L128 168.008L48 88.0078L208 88.0078Z" fill="currentColor"/>
<path d="M213.661 93.6645L133.661 173.664C132.918 174.408 132.035 174.998 131.064 175.401C130.093 175.804 129.052 176.011 128.001 176.011C126.949 176.011 125.908 175.804 124.937 175.401C123.966 174.998 123.084 174.408 122.341 173.664L42.3405 93.6645C40.8394 92.1633 39.9961 90.1274 39.9961 88.0044C39.9961 85.8815 40.8394 83.8456 42.3405 82.3444C43.8417 80.8433 45.8776 80 48.0005 80C50.1235 80 52.1594 80.8433 53.6605 82.3444L128.001 156.694L202.341 82.3444C203.842 80.8433 205.878 80 208.001 80C210.123 80 212.159 80.8433 213.661 82.3444C215.162 83.8456 216.005 85.8815 216.005 88.0044C216.005 90.1274 215.162 92.1633 213.661 93.6645Z" fill="currentColor"/>
</svg>
