<svg width="256" height="256" viewBox="0 0 256 256" fill="none" xmlns="http://www.w3.org/2000/svg">
<path opacity="0.2" d="M88.0078 48L168.008 128L88.0078 208L88.0078 48Z" fill="currentColor"/>
<path d="M93.6645 42.3395L173.664 122.339C174.408 123.082 174.998 123.965 175.401 124.936C175.804 125.907 176.011 126.948 176.011 127.999C176.011 129.051 175.804 130.092 175.401 131.063C174.998 132.034 174.408 132.916 173.664 133.659L93.6645 213.659C92.1633 215.161 90.1274 216.004 88.0045 216.004C85.8815 216.004 83.8456 215.161 82.3445 213.659C80.8433 212.158 80 210.122 80 207.999C80 205.877 80.8433 203.841 82.3445 202.339L156.694 127.999L82.3444 53.6595C80.8433 52.1583 80 50.1224 80 47.9995C80 45.8765 80.8433 43.8406 82.3444 42.3395C83.8456 40.8383 85.8815 39.995 88.0045 39.995C90.1274 39.995 92.1633 40.8383 93.6645 42.3395Z" fill="currentColor"/>
</svg>
