<svg width="256" height="256" viewBox="0 0 256 256" fill="none" xmlns="http://www.w3.org/2000/svg">
<path d="M162.336 213.661L82.3356 133.661C81.5917 132.918 81.0017 132.035 80.5991 131.064C80.1965 130.093 79.9893 129.052 79.9893 128.001C79.9893 126.949 80.1965 125.908 80.5991 124.937C81.0017 123.966 81.5917 123.084 82.3356 122.341L162.336 42.3406C163.837 40.8394 165.873 39.9961 167.996 39.9961C170.118 39.9961 172.154 40.8394 173.656 42.3406C175.157 43.8417 176 45.8776 176 48.0006C176 50.1235 175.157 52.1594 173.656 53.6606L99.3056 128.001L173.656 202.341C175.157 203.842 176 205.878 176 208.001C176 210.123 175.157 212.159 173.656 213.661C172.154 215.162 170.118 216.005 167.996 216.005C165.873 216.005 163.837 215.162 162.336 213.661Z" fill="currentColor"/>
</svg>
