<svg width="256" height="256" viewBox="0 0 256 256" fill="none" xmlns="http://www.w3.org/2000/svg">
<path opacity="0.2" d="M48 167.992L128 87.9922L208 167.992L48 167.992Z" fill="currentColor"/>
<path d="M42.3395 162.336L122.339 82.3356C123.082 81.5917 123.965 81.0017 124.936 80.5991C125.907 80.1965 126.948 79.9893 127.999 79.9893C129.051 79.9893 130.092 80.1965 131.063 80.5991C132.034 81.0017 132.916 81.5917 133.659 82.3356L213.659 162.336C215.161 163.837 216.004 165.873 216.004 167.996C216.004 170.118 215.161 172.154 213.659 173.656C212.158 175.157 210.122 176 207.999 176C205.877 176 203.841 175.157 202.339 173.656L127.999 99.3056L53.6595 173.656C52.1583 175.157 50.1224 176 47.9995 176C45.8766 176 43.8406 175.157 42.3395 173.656C40.8383 172.154 39.995 170.118 39.995 167.996C39.995 165.873 40.8383 163.837 42.3395 162.336Z" fill="currentColor"/>
</svg>
