<svg width="16" height="16" viewBox="0 0 16 16" fill="none" xmlns="http://www.w3.org/2000/svg">
<path opacity="0.2" d="M8 14C6.81331 14 5.65327 13.6481 4.66658 12.9888C3.67988 12.3295 2.91085 11.3925 2.45672 10.2961C2.0026 9.19975 1.88378 7.99335 2.11529 6.82946C2.3468 5.66558 2.91824 4.59648 3.75736 3.75736C4.59648 2.91825 5.66557 2.3468 6.82946 2.11529C7.99335 1.88378 9.19974 2.0026 10.2961 2.45673C11.3925 2.91085 12.3295 3.67989 12.9888 4.66658C13.6481 5.65328 14 6.81332 14 8C14 9.5913 13.3679 11.1174 12.2426 12.2426C11.1174 13.3679 9.5913 14 8 14Z" fill="currentColor"/>
<path d="M8 11C7.86739 11 7.74021 10.9473 7.64645 10.8536C7.55268 10.7598 7.5 10.6326 7.5 10.5L7.5 5.5C7.5 5.3674 7.55268 5.24022 7.64645 5.14645C7.74021 5.05268 7.86739 5 8 5C8.13261 5 8.25979 5.05268 8.35355 5.14645C8.44732 5.24022 8.5 5.3674 8.5 5.5L8.5 10.5C8.5 10.6326 8.44732 10.7598 8.35355 10.8536C8.25979 10.9473 8.13261 11 8 11ZM8 14.5C6.71442 14.5 5.45771 14.1188 4.38879 13.4046C3.31987 12.6903 2.48675 11.6752 1.99478 10.4874C1.50281 9.29973 1.37409 7.99279 1.6249 6.73192C1.8757 5.47104 2.49476 4.31285 3.40381 3.40381C4.31285 2.49477 5.47104 1.8757 6.73191 1.6249C7.99279 1.3741 9.29972 1.50282 10.4874 1.99479C11.6752 2.48676 12.6903 3.31988 13.4046 4.3888C14.1188 5.45772 14.5 6.71442 14.5 8C14.4982 9.72335 13.8128 11.3756 12.5942 12.5942C11.3756 13.8128 9.72335 14.4982 8 14.5ZM8 13.5C9.0878 13.5 10.1512 13.1774 11.0556 12.5731C11.9601 11.9687 12.6651 11.1098 13.0813 10.1048C13.4976 9.09977 13.6065 7.9939 13.3943 6.92701C13.1821 5.86011 12.6583 4.88011 11.8891 4.11092C11.1199 3.34173 10.1399 2.8179 9.073 2.60568C8.0061 2.39347 6.90023 2.50238 5.89524 2.91867C4.89025 3.33495 4.03127 4.0399 3.42692 4.94437C2.82257 5.84884 2.5 6.91221 2.5 8C2.50165 9.45819 3.08165 10.8562 4.11274 11.8873C5.14383 12.9184 6.54182 13.4983 8 13.5Z" fill="currentColor"/>
</svg>
