<svg width="256" height="256" viewBox="0 0 256 256" fill="none" xmlns="http://www.w3.org/2000/svg">
<path opacity="0.2" d="M112 56V104C112 106.122 111.157 108.157 109.657 109.657C108.157 111.157 106.122 112 104 112H56C53.8783 112 51.8434 111.157 50.3431 109.657C48.8429 108.157 48 106.122 48 104V56C48 53.8783 48.8429 51.8434 50.3431 50.3431C51.8434 48.8429 53.8783 48 56 48H104C106.122 48 108.157 48.8429 109.657 50.3431C111.157 51.8434 112 53.8783 112 56ZM200 48H152C149.878 48 147.843 48.8429 146.343 50.3431C144.843 51.8434 144 53.8783 144 56V104C144 106.122 144.843 108.157 146.343 109.657C147.843 111.157 149.878 112 152 112H200C202.122 112 204.157 111.157 205.657 109.657C207.157 108.157 208 106.122 208 104V56C208 53.8783 207.157 51.8434 205.657 50.3431C204.157 48.8429 202.122 48 200 48ZM200 144H56C53.8783 144 51.8434 144.843 50.3431 146.343C48.8428 147.843 48 149.878 48 152V200C48 202.122 48.8428 204.157 50.3431 205.657C51.8434 207.157 53.8783 208 56 208H200C202.122 208 204.157 207.157 205.657 205.657C207.157 204.157 208 202.122 208 200V152C208 149.878 207.157 147.843 205.657 146.343C204.157 144.843 202.122 144 200 144Z" fill="currentColor"/>
<path d="M200 136H55.9995C51.756 136 47.6864 137.686 44.6858 140.686C41.6852 143.687 39.9995 147.757 39.9995 152V200C39.9995 204.243 41.6852 208.313 44.6858 211.314C47.6864 214.314 51.756 216 55.9995 216H200C204.243 216 208.313 214.314 211.313 211.314C214.314 208.313 216 204.243 216 200V152C216 147.757 214.314 143.687 211.313 140.686C208.313 137.686 204.243 136 200 136ZM200 200H55.9995V152H200V200ZM104 40H55.9995C51.756 40 47.6864 41.6857 44.6858 44.6863C41.6852 47.6869 39.9995 51.7565 39.9995 56V104C39.9995 108.243 41.6852 112.313 44.6858 115.314C47.6864 118.314 51.756 120 55.9995 120H104C108.243 120 112.313 118.314 115.313 115.314C118.314 112.313 120 108.243 120 104V56C120 51.7565 118.314 47.6869 115.313 44.6863C112.313 41.6857 108.243 40 104 40ZM104 104H55.9995V56H104V104ZM200 40H152C147.756 40 143.686 41.6857 140.686 44.6863C137.685 47.6869 136 51.7565 136 56V104C136 108.243 137.685 112.313 140.686 115.314C143.686 118.314 147.756 120 152 120H200C204.243 120 208.313 118.314 211.313 115.314C214.314 112.313 216 108.243 216 104V56C216 51.7565 214.314 47.6869 211.313 44.6863C208.313 41.6857 204.243 40 200 40ZM200 104H152V56H200V104Z" fill="currentColor"/>
</svg>
