<svg width="256" height="256" viewBox="0 0 256 256" fill="none" xmlns="http://www.w3.org/2000/svg">
<path d="M224 128C224 130.122 223.157 132.157 221.657 133.657C220.157 135.157 218.122 136 216 136H40C37.8783 136 35.8434 135.157 34.3431 133.657C32.8429 132.157 32 130.122 32 128C32 125.878 32.8429 123.843 34.3431 122.343C35.8434 120.843 37.8783 120 40 120H216C218.122 120 220.157 120.843 221.657 122.343C223.157 123.843 224 125.878 224 128ZM128 80C131.165 80 134.258 79.0616 136.889 77.3035C139.52 75.5454 141.571 73.0466 142.782 70.1229C143.993 67.1993 144.31 63.9823 143.693 60.8786C143.075 57.7749 141.551 54.9239 139.314 52.6863C137.076 50.4487 134.225 48.9248 131.121 48.3074C128.018 47.6901 124.801 48.0069 121.877 49.2179C118.953 50.4289 116.455 52.4797 114.696 55.1109C112.938 57.7421 112 60.8355 112 64C112 68.2435 113.686 72.3131 116.686 75.3137C119.687 78.3143 123.757 80 128 80ZM128 176C124.835 176 121.742 176.938 119.111 178.697C116.48 180.455 114.429 182.953 113.218 185.877C112.007 188.801 111.69 192.018 112.307 195.121C112.925 198.225 114.449 201.076 116.686 203.314C118.924 205.551 121.775 207.075 124.879 207.693C127.982 208.31 131.199 207.993 134.123 206.782C137.047 205.571 139.545 203.52 141.304 200.889C143.062 198.258 144 195.165 144 192C144 187.757 142.314 183.687 139.314 180.686C136.313 177.686 132.243 176 128 176Z" fill="currentColor"/>
</svg>
