<svg width="256" height="256" viewBox="0 0 256 256" fill="none" xmlns="http://www.w3.org/2000/svg">
<path opacity="0.2" d="M40 48L216 48C218.122 48 220.157 48.8429 221.657 50.3432C223.157 51.8434 224 53.8783 224 56L224 200C224 202.122 223.157 204.157 221.657 205.657C220.157 207.157 218.122 208 216 208L40 208C37.8783 208 35.8434 207.157 34.3432 205.657C32.8429 204.157 32 202.122 32 200L32 56C32 53.8783 32.8429 51.8434 34.3432 50.3432C35.8434 48.8429 37.8783 48 40 48Z" fill="currentColor"/>
<path d="M24 56L24 200C24 204.243 25.6857 208.313 28.6863 211.314C31.6869 214.314 35.7565 216 40 216L216 216C220.243 216 224.313 214.314 227.314 211.314C230.314 208.313 232 204.243 232 200L232 56C232 51.7565 230.314 47.6869 227.314 44.6863C224.313 41.6857 220.243 40 216 40L40 40C35.7565 40 31.6869 41.6857 28.6863 44.6863C25.6857 47.6869 24 51.7565 24 56ZM216 56L216 200L40 200L40 56L216 56ZM80 160C82.3734 160 84.6935 160.704 86.6668 162.022C88.6402 163.341 90.1783 165.215 91.0866 167.408C91.9948 169.601 92.2325 172.013 91.7694 174.341C91.3064 176.669 90.1635 178.807 88.4853 180.485C86.8071 182.164 84.6689 183.306 82.3411 183.769C80.0133 184.232 77.6005 183.995 75.4078 183.087C73.2151 182.178 71.3409 180.64 70.0224 178.667C68.7038 176.693 68 174.373 68 172C68 168.817 69.2643 165.765 71.5147 163.515C73.7652 161.264 76.8174 160 80 160ZM176 160C178.373 160 180.693 160.704 182.667 162.022C184.64 163.341 186.178 165.215 187.087 167.408C187.995 169.601 188.232 172.013 187.769 174.341C187.306 176.669 186.164 178.807 184.485 180.485C182.807 182.164 180.669 183.306 178.341 183.769C176.013 184.232 173.601 183.995 171.408 183.087C169.215 182.178 167.341 180.64 166.022 178.667C164.704 176.693 164 174.373 164 172C164 168.817 165.264 165.765 167.515 163.515C169.765 161.264 172.817 160 176 160ZM128 160C130.373 160 132.693 160.704 134.667 162.022C136.64 163.341 138.178 165.215 139.087 167.408C139.995 169.601 140.232 172.013 139.769 174.341C139.306 176.669 138.164 178.807 136.485 180.485C134.807 182.164 132.669 183.306 130.341 183.769C128.013 184.232 125.601 183.995 123.408 183.087C121.215 182.178 119.341 180.64 118.022 178.667C116.704 176.693 116 174.373 116 172C116 168.817 117.264 165.765 119.515 163.515C121.765 161.264 124.817 160 128 160Z" fill="currentColor"/>
</svg>
