<svg width="256" height="256" viewBox="0 0 256 256" fill="none" xmlns="http://www.w3.org/2000/svg">
<path d="M140 128C140 130.373 139.296 132.693 137.978 134.667C136.659 136.64 134.785 138.178 132.592 139.087C130.399 139.995 127.987 140.232 125.659 139.769C123.331 139.306 121.193 138.164 119.515 136.485C117.836 134.807 116.694 132.669 116.231 130.341C115.768 128.013 116.005 125.601 116.913 123.408C117.822 121.215 119.36 119.341 121.333 118.022C123.307 116.704 125.627 116 128 116C131.183 116 134.235 117.264 136.485 119.515C138.736 121.765 140 124.817 140 128Z" fill="currentColor"/>
</svg>
