<svg width="256" height="256" viewBox="0 0 256 256" fill="none" xmlns="http://www.w3.org/2000/svg">
<path d="M224 160C224 162.122 223.157 164.157 221.657 165.657C220.157 167.157 218.122 168 216 168H40C37.8783 168 35.8434 167.157 34.3431 165.657C32.8429 164.157 32 162.122 32 160C32 157.878 32.8429 155.843 34.3431 154.343C35.8434 152.843 37.8783 152 40 152H216C218.122 152 220.157 152.843 221.657 154.343C223.157 155.843 224 157.878 224 160ZM40 104H216C218.122 104 220.157 103.157 221.657 101.657C223.157 100.157 224 98.1217 224 96C224 93.8783 223.157 91.8434 221.657 90.3431C220.157 88.8429 218.122 88 216 88H40C37.8783 88 35.8434 88.8429 34.3431 90.3431C32.8429 91.8434 32 93.8783 32 96C32 98.1217 32.8429 100.157 34.3431 101.657C35.8434 103.157 37.8783 104 40 104Z" fill="currentColor"/>
</svg>
