<svg width="256" height="256" viewBox="0 0 256 256" fill="none" xmlns="http://www.w3.org/2000/svg">
<path d="M224 128C224 130.122 223.157 132.157 221.657 133.657C220.157 135.157 218.122 136 216 136H136V216C136 218.122 135.157 220.157 133.657 221.657C132.157 223.157 130.122 224 128 224C125.878 224 123.843 223.157 122.343 221.657C120.843 220.157 120 218.122 120 216V136H40C37.8783 136 35.8434 135.157 34.3431 133.657C32.8429 132.157 32 130.122 32 128C32 125.878 32.8429 123.843 34.3431 122.343C35.8434 120.843 37.8783 120 40 120H120V40C120 37.8783 120.843 35.8434 122.343 34.3431C123.843 32.8429 125.878 32 128 32C130.122 32 132.157 32.8429 133.657 34.3431C135.157 35.8434 136 37.8783 136 40V120H216C218.122 120 220.157 120.843 221.657 122.343C223.157 123.843 224 125.878 224 128Z" fill="currentColor"/>
</svg>
