<svg width="256" height="256" viewBox="0 0 256 256" fill="none" xmlns="http://www.w3.org/2000/svg">
<path d="M205.66 194.34C206.403 195.083 206.993 195.966 207.395 196.937C207.797 197.908 208.005 198.949 208.005 200C208.005 201.051 207.797 202.092 207.395 203.063C206.993 204.034 206.403 204.917 205.66 205.66C204.917 206.403 204.034 206.993 203.063 207.395C202.092 207.797 201.051 208.004 200 208.004C198.949 208.004 197.908 207.797 196.937 207.395C195.966 206.993 195.083 206.403 194.34 205.66L128 139.31L61.6601 205.66C60.1589 207.161 58.123 208.004 56.0001 208.004C53.8771 208.004 51.8412 207.161 50.3401 205.66C48.8389 204.159 47.9956 202.123 47.9956 200C47.9956 197.877 48.8389 195.841 50.3401 194.34L116.69 128L50.3401 61.66C48.8389 60.1589 47.9956 58.1229 47.9956 56C47.9956 53.8771 48.8389 51.8411 50.3401 50.34C51.8412 48.8389 53.8771 47.9955 56.0001 47.9955C58.123 47.9955 60.1589 48.8389 61.6601 50.34L128 116.69L194.34 50.34C195.841 48.8389 197.877 47.9955 200 47.9955C202.123 47.9955 204.159 48.8389 205.66 50.34C207.161 51.8411 208.005 53.8771 208.005 56C208.005 58.1229 207.161 60.1589 205.66 61.66L139.31 128L205.66 194.34Z" fill="currentColor"/>
</svg>
